HIERARCHY
ROOT joint_Root
{
	OFFSET 0.0 0.0 0.0
	CHANNELS 6 Xposition Yposition Zposition Zrotation Xrotation Yrotation 
	JOINT Hips
	{
		OFFSET -17.1583 93.1646 452.98
		CHANNELS 6 Xposition Yposition Zposition Zrotation Xrotation Yrotation 
		JOINT Spine
		{
			OFFSET 15.7357 0.0 0.0
			CHANNELS 6 Xposition Yposition Zposition Zrotation Xrotation Yrotation 
			JOINT Chest
			{
				OFFSET 8.98455 -0.406207 0.0
				CHANNELS 6 Xposition Yposition Zposition Zrotation Xrotation Yrotation 
				JOINT Neck
				{
					OFFSET 16.3773 0.0 0.0
					CHANNELS 6 Xposition Yposition Zposition Zrotation Xrotation Yrotation 
					JOINT Head
					{
						OFFSET 6.45672 0.0 0.0
						CHANNELS 6 Xposition Yposition Zposition Zrotation Xrotation Yrotation 
						End Site
						{
							OFFSET 0.0 0.0 0.0
						}
					}
				}
				JOINT Shoulder_L
				{
					OFFSET 12.9942 -0.242716 4.98039
					CHANNELS 6 Xposition Yposition Zposition Zrotation Xrotation Yrotation 
					JOINT UpperArm_L
					{
						OFFSET 5.34809 0.0 0.0
						CHANNELS 6 Xposition Yposition Zposition Zrotation Xrotation Yrotation 
						JOINT LowerArm_L
						{
							OFFSET 24.3286 1.87007e-05 0.0
							CHANNELS 6 Xposition Yposition Zposition Zrotation Xrotation Yrotation 
							JOINT Hand_L
							{
								OFFSET 22.2916 0.0 0.0
								CHANNELS 6 Xposition Yposition Zposition Zrotation Xrotation Yrotation 
								End Site
								{
									OFFSET 0.0 0.0 0.0
								}
							}
						}
					}
				}
				JOINT Shoulder_R
				{
					OFFSET 12.9945 -0.242716 -4.98039
					CHANNELS 6 Xposition Yposition Zposition Zrotation Xrotation Yrotation 
					JOINT UpperArm_R
					{
						OFFSET -5.34813 0.0 0.0
						CHANNELS 6 Xposition Yposition Zposition Zrotation Xrotation Yrotation 
						JOINT LowerArm_R
						{
							OFFSET -24.3289 0.000322201 0.0
							CHANNELS 6 Xposition Yposition Zposition Zrotation Xrotation Yrotation 
							JOINT Hand_R
							{
								OFFSET -22.2915 -0.000108084 0.0
								CHANNELS 6 Xposition Yposition Zposition Zrotation Xrotation Yrotation 
								End Site
								{
									OFFSET 0.0 0.0 0.0
								}
							}
						}
					}
				}
			}
		}
		JOINT UpperLeg_L
		{
			OFFSET -2.19248 -6.46944 0.0
			CHANNELS 6 Xposition Yposition Zposition Zrotation Xrotation Yrotation 
			JOINT LowerLeg_L
			{
				OFFSET 39.0811 0.0 -1.23785e-05
				CHANNELS 6 Xposition Yposition Zposition Zrotation Xrotation Yrotation 
				JOINT Foot_L
				{
					OFFSET 40.9854 0.0 -1.26872e-05
					CHANNELS 6 Xposition Yposition Zposition Zrotation Xrotation Yrotation 
					JOINT Toes_L
					{
						OFFSET 11.7543 0.0 0.0
						CHANNELS 6 Xposition Yposition Zposition Zrotation Xrotation Yrotation 
						End Site
						{
							OFFSET 0.0 0.0 0.0
						}
					}
				}
			}
		}
		JOINT UpperLeg_R
		{
			OFFSET -2.19251 6.46944 0.0
			CHANNELS 6 Xposition Yposition Zposition Zrotation Xrotation Yrotation 
			JOINT LowerLeg_R
			{
				OFFSET -39.0811 -0.00228153 -0.0401928
				CHANNELS 6 Xposition Yposition Zposition Zrotation Xrotation Yrotation 
				JOINT Foot_R
				{
					OFFSET -40.9854 0.0 0.0
					CHANNELS 6 Xposition Yposition Zposition Zrotation Xrotation Yrotation 
					JOINT Toes_R
					{
						OFFSET -11.7543 0.0 0.0
						CHANNELS 6 Xposition Yposition Zposition Zrotation Xrotation Yrotation 
						End Site
						{
							OFFSET 0.0 0.0 0.0
						}
					}
				}
			}
		}
	}
}
MOTION
Frames:	6
Frame Time:	0.0333333
0.000000 0.000000 0.000000 0.000000 0.000000 -0.000000 147.223000 88.710700 218.986000 107.643000 -63.556900 10.579100 15.735700 0.000005 -0.000001 126.585000 88.875200 -128.149000 8.984550 -0.406207 -0.000000 -5.938000 1.525750 -3.052630 16.377300 -0.000001 -0.000001 -1.026700 -4.001330 2.032000 6.456720 -0.000001 -0.000000 3.812080 -5.765230 -2.838120 12.994200 -0.242716 4.980390 -92.435500 7.136390 -71.100800 5.348090 -0.000007 -0.000001 -60.444500 -14.217000 20.146300 24.328600 0.000019 0.000005 6.021920 28.986900 -12.280300 22.291600 -0.000001 0.000005 53.555000 4.494080 16.697700 12.994500 -0.242716 -4.980390 88.979200 3.338150 -72.985900 -5.348130 -0.000001 -0.000004 -74.079900 6.346180 -4.379310 -24.328900 0.000322 -0.000009 -1.236280 -1.662560 -36.611300 -22.291500 -0.000108 -0.000004 40.749200 5.514320 -7.125600 -2.192480 -6.469440 -0.000000 -178.449000 7.098490 -31.328200 39.081100 -0.000007 -0.000012 0.138073 -0.223973 31.652600 40.985400 -0.000006 -0.000013 -7.158280 8.644770 -64.960400 11.754300 -0.000000 0.000003 0.001728 0.130148 -11.299000 -2.192510 6.469440 -0.000001 176.537000 -8.568200 -178.371000 -39.081100 -0.002282 -0.040193 -0.112065 0.127992 42.023100 -40.985400 0.000008 0.000006 9.968040 13.348500 -48.567400 -11.754300 -0.000006 -0.000006 -0.117135 -0.485220 -36.916300
0.000000 0.000000 0.000000 0.000000 0.000000 -0.000000 143.896000 88.372700 221.957000 111.427000 -64.832400 15.647800 15.735700 0.000005 -0.000001 108.749000 88.484100 -110.829000 8.984550 -0.406207 -0.000000 -4.870450 1.202740 -4.112350 16.377300 -0.000001 -0.000001 -1.667920 -3.733440 1.827480 6.456720 -0.000001 -0.000000 3.982730 -5.201170 -1.997170 12.994200 -0.242716 4.980390 -92.329600 7.015040 -71.577200 5.348090 -0.000007 -0.000001 -62.531600 -12.809700 15.896500 24.328600 0.000019 0.000005 5.116100 28.485000 -10.631900 22.291600 -0.000001 0.000005 53.975400 4.475230 17.007100 12.994500 -0.242716 -4.980390 89.083800 3.044660 -73.243000 -5.348130 -0.000001 -0.000004 -75.853600 5.927430 -2.432520 -24.328900 0.000322 -0.000009 -2.054140 -3.537890 -30.198200 -22.291500 -0.000108 -0.000004 38.568900 5.506600 -6.798370 -2.192480 -6.469440 -0.000000 179.170000 7.990840 -28.878900 39.081100 -0.000007 -0.000012 0.253211 -0.353221 35.635500 40.985400 -0.000006 -0.000013 -5.626830 6.987620 -67.093600 11.754300 -0.000000 0.000003 0.000513 0.158487 -10.149000 -2.192510 6.469440 -0.000001 174.871000 -8.196070 176.150000 -39.081100 -0.002282 -0.040193 -0.067411 0.053069 53.086100 -40.985400 0.000008 0.000006 3.357000 9.313780 -36.711600 -11.754300 -0.000006 -0.000006 -0.004560 -0.057139 -18.897700
0.000000 0.000000 0.000000 0.000000 0.000000 -0.000000 140.619000 88.406300 224.440000 115.630000 -67.645600 21.098900 15.735700 0.000005 -0.000001 102.892000 87.980600 -105.173000 8.984550 -0.406207 -0.000000 -3.802750 1.130740 -4.527550 16.377300 -0.000001 -0.000001 -2.056970 -2.884090 1.406070 6.456720 -0.000001 -0.000000 3.647980 -4.095520 -1.746050 12.994200 -0.242716 4.980390 -92.422000 7.319740 -71.634500 5.348090 -0.000007 -0.000001 -64.612900 -11.633400 12.197300 24.328600 0.000019 0.000005 5.826050 26.539800 -12.864800 22.291600 -0.000001 0.000005 53.863900 4.476140 16.992100 12.994500 -0.242716 -4.980390 89.106700 3.043770 -73.635100 -5.348130 -0.000001 -0.000004 -76.457300 8.334410 -1.470020 -24.328900 0.000322 -0.000009 -2.280560 -5.488430 -22.585500 -22.291500 -0.000108 -0.000004 37.266100 5.496080 -6.369730 -2.192480 -6.469440 -0.000000 177.245000 5.885790 -25.042600 39.081100 -0.000007 -0.000012 0.329840 -0.435793 37.121500 40.985400 -0.000006 -0.000013 -4.367060 6.081860 -69.816400 11.754300 -0.000000 0.000003 -0.000926 0.181971 -9.195230 -2.192510 6.469440 -0.000001 173.897000 -8.262090 170.269000 -39.081100 -0.002282 -0.040193 0.083949 -0.041834 62.617100 -40.985400 0.000008 0.000006 0.103204 -1.817200 -34.499900 -11.754300 -0.000006 -0.000006 0.000170 0.164759 -9.890930
0.000000 0.000000 0.000000 0.000000 0.000000 -0.000000 137.238000 88.902300 226.387000 118.957000 -70.483700 25.724700 15.735700 0.000005 -0.000001 94.413300 87.559600 -96.571700 8.984550 -0.406207 -0.000000 -2.885340 0.575933 -4.302810 16.377300 -0.000001 -0.000001 -2.062080 -1.720280 0.890776 6.456720 -0.000001 -0.000000 3.275530 -2.629130 -2.022580 12.994200 -0.242716 4.980390 -92.598800 7.761920 -71.424400 5.348090 -0.000007 -0.000001 -66.534100 -9.881020 8.665490 24.328600 0.000019 0.000005 7.538680 25.198500 -17.267600 22.291600 -0.000001 0.000005 52.774200 4.503060 16.549000 12.994500 -0.242716 -4.980390 89.126000 2.998720 -73.742900 -5.348130 -0.000001 -0.000004 -76.930900 8.691900 -0.170204 -24.328900 0.000322 -0.000009 -0.328483 -1.139480 -15.812500 -22.291500 -0.000108 -0.000004 34.913200 5.478480 -5.689410 -2.192480 -6.469440 -0.000000 176.330000 2.203370 -19.833100 39.081100 -0.000007 -0.000012 0.364080 -0.506411 35.714600 40.985400 -0.000006 -0.000013 -3.207380 6.451260 -71.885900 11.754300 -0.000000 0.000003 -0.001529 0.190286 -8.857260 -2.192510 6.469440 -0.000001 174.632000 -7.232640 165.788000 -39.081100 -0.002282 -0.040193 0.036131 -0.012755 68.870900 -40.985400 0.000008 0.000006 3.115650 -13.083400 -43.520400 -11.754300 -0.000006 -0.000006 -0.000126 0.169765 -9.687640
0.000000 0.000000 0.000000 0.000000 0.000000 -0.000000 133.872000 89.571300 227.929000 120.287000 -73.152300 28.340700 15.735700 0.000005 -0.000001 85.445100 87.204500 -87.207400 8.984550 -0.406207 -0.000000 -2.194780 -0.290768 -3.529640 16.377300 -0.000001 -0.000001 -1.786740 -0.758097 0.495579 6.456720 -0.000001 -0.000000 3.320900 -1.001970 -2.485630 12.994200 -0.242716 4.980390 -92.667600 7.932070 -71.344300 5.348090 -0.000007 -0.000001 -68.169200 -6.472200 5.147490 24.328600 0.000019 0.000005 9.468120 24.082000 -22.229600 22.291600 -0.000001 0.000005 52.479800 4.509840 16.437300 12.994500 -0.242716 -4.980390 89.289600 2.450390 -73.827300 -5.348130 -0.000001 -0.000004 -77.421200 5.541430 2.066830 -24.328900 0.000322 -0.000009 0.814252 4.233800 -10.933800 -22.291500 -0.000108 -0.000004 32.877800 5.451130 -4.671670 -2.192480 -6.469440 -0.000000 176.742000 -1.697710 -14.068700 39.081100 -0.000007 -0.000012 0.330125 -0.517096 32.555500 40.985400 -0.000006 -0.000013 -2.280790 7.528080 -73.130800 11.754300 -0.000000 0.000003 -0.001348 0.187866 -8.955640 -2.192510 6.469440 -0.000001 176.782000 -6.296600 162.385000 -39.081100 -0.002282 -0.040193 -0.080814 0.029274 70.768800 -40.985400 0.000008 0.000006 5.054910 -20.167400 -50.695400 -11.754300 -0.000006 -0.000006 -0.000390 0.173992 -9.515930
0.000000 0.000000 0.000000 0.000000 0.000000 -0.000000 130.706000 90.272400 229.239000 119.739000 -75.660300 28.489000 15.735700 0.000005 -0.000001 77.122100 87.024200 -78.349700 8.984550 -0.406207 -0.000000 -1.976100 -1.221810 -2.475840 16.377300 -0.000001 -0.000001 -1.330690 0.139805 0.218692 6.456720 -0.000001 -0.000000 3.725740 0.368796 -2.776350 12.994200 -0.242716 4.980390 -92.488200 7.502800 -71.593100 5.348090 -0.000007 -0.000001 -69.542900 -3.951920 1.389430 24.328600 0.000019 0.000005 11.690600 24.132900 -26.841600 22.291600 -0.000001 0.000005 53.008400 4.527210 16.147800 12.994500 -0.242716 -4.980390 89.538600 1.578550 -73.705100 -5.348130 -0.000001 -0.000004 -77.168200 3.033300 4.603440 -24.328900 0.000322 -0.000009 0.680344 5.510290 -7.067170 -22.291500 -0.000108 -0.000004 32.986400 5.431110 -3.974660 -2.192480 -6.469440 -0.000000 177.751000 -2.562210 -8.509630 39.081100 -0.000007 -0.000012 0.283208 -0.530777 28.083600 40.985400 -0.000006 -0.000013 -2.217000 6.464590 -73.815900 11.754300 -0.000000 0.000003 -0.000616 0.177419 -9.380200 -2.192510 6.469440 -0.000001 179.146000 -5.841980 159.219000 -39.081100 -0.002282 -0.040193 -0.109320 0.042622 69.240400 -40.985400 0.000008 0.000006 4.392290 -19.291500 -56.055200 -11.754300 -0.000006 -0.000006 -0.000797 0.180152 -9.265700
